<svg version="1.1" id="Layer_1" xmlns="http://www.w3.org/2000/svg" xmlns:xlink="http://www.w3.org/1999/xlink" x="0px" y="0px"
	 width="100%" viewBox="0 0 1024 1024" enable-background="new 0 0 1024 1024" xml:space="preserve">
<path fill="#FDEEDD" opacity="1.000000" stroke="none" 
	d="
M447.000000,1025.000000 
	C298.000000,1025.000000 149.500000,1025.000000 1.000000,1025.000000 
	C1.000000,683.666687 1.000000,342.333344 1.000000,1.000000 
	C342.333344,1.000000 683.666687,1.000000 1025.000000,1.000000 
	C1025.000000,342.333344 1025.000000,683.666687 1025.000000,1025.000000 
	C832.500000,1025.000000 640.000000,1025.000000 447.000000,1025.000000 
M706.632324,384.924225 
	C706.892822,384.722565 707.062805,384.461914 707.713440,383.748138 
	C713.194275,375.453003 709.303345,366.206482 699.591980,364.631317 
	C697.474060,364.287811 695.281616,364.320007 693.123535,364.320343 
	C645.705383,364.327637 598.287170,364.349365 550.869019,364.401611 
	C549.237183,364.403412 547.605713,364.749359 545.045715,364.819855 
	C536.025024,364.865448 527.004272,364.911041 517.052307,364.875153 
	C508.712128,364.897034 500.371979,364.918945 491.092133,364.876892 
	C437.569092,364.902588 384.045990,364.909576 330.523010,364.970673 
	C320.516235,364.982117 316.155762,369.584381 315.776459,380.284607 
	C314.325775,380.057770 312.875092,379.830963 309.971008,379.376862 
	C312.709442,384.681793 314.867798,389.103851 317.325104,393.352997 
	C317.676910,393.961334 319.476959,393.713745 320.601013,393.897278 
	C324.057220,394.461731 327.531891,394.940430 330.958954,395.648163 
	C334.118225,396.300568 337.186462,397.523712 340.366058,397.911743 
	C343.626801,398.309753 346.973938,398.000000 350.283264,398.000000 
	C350.280670,398.517426 350.278076,399.034851 350.275482,399.552277 
	C349.069366,399.701324 347.865845,399.953430 346.656769,399.983368 
	C335.287384,400.265076 335.287109,400.254120 337.093719,410.860382 
	C334.060638,410.813293 331.027557,410.766235 327.769348,410.039581 
	C324.945953,410.340118 322.067047,410.388641 319.311157,410.995667 
	C314.161896,412.129944 314.020142,412.773712 317.126801,417.987885 
	C316.983185,420.356445 316.839600,422.724976 316.292389,425.613495 
	C314.525391,428.755249 312.758392,431.897003 310.991394,435.038757 
	C311.354828,435.406250 311.718262,435.773743 312.081696,436.141235 
	C314.209961,435.004791 316.338196,433.868378 317.667053,433.158783 
	C319.421600,434.858276 320.945312,436.334198 322.469055,437.810120 
	C322.980469,436.576660 323.491882,435.343201 324.476318,434.048462 
	C324.476318,434.048462 324.952240,434.017609 325.213684,434.320526 
	C325.213684,434.320526 325.580536,434.469208 325.580536,434.469208 
	C325.580536,434.469208 325.945038,434.315399 326.603821,434.557129 
	C327.064758,434.627899 327.525665,434.698669 328.905640,434.976593 
	C343.927399,434.899017 358.949158,434.821442 374.653412,434.816742 
	C375.109436,434.789093 375.565460,434.761444 376.667480,434.918274 
	C377.110107,434.987091 377.552704,435.055939 378.013123,435.846558 
	C379.585632,437.871887 381.079712,439.964722 382.750183,441.905731 
	C384.906769,444.411530 384.272614,447.577087 381.203247,447.854553 
	C374.795441,448.433868 368.351044,448.867401 361.921234,448.873199 
	C355.158295,448.879303 348.394196,448.114410 341.632050,448.135437 
	C339.814545,448.141052 337.974762,449.729828 336.193848,450.682770 
	C333.575745,452.083740 330.956818,453.493774 328.427277,455.045135 
	C327.179138,455.810669 326.130432,456.901367 324.295044,458.029510 
	C318.858124,460.532806 315.856903,464.838135 316.356873,469.417114 
	C316.980927,475.132599 320.384888,478.917725 326.394440,480.220520 
	C328.638947,480.707092 330.989777,480.891663 333.292480,480.894104 
	C395.527985,480.960083 457.763550,480.984528 519.905762,481.766205 
	C519.935669,485.370728 519.945068,488.975616 520.001587,492.579712 
	C520.052368,495.815399 518.447998,497.412231 515.348022,496.550201 
	C511.516327,495.484741 511.032471,497.540558 510.988342,500.447144 
	C510.968628,501.745972 510.796936,503.042542 510.662445,504.741852 
	C505.832306,503.323700 504.685638,505.689056 504.790924,509.767120 
	C504.854156,512.216980 504.180634,514.676331 504.006805,517.143311 
	C503.156860,529.204163 503.330170,529.324951 516.022583,526.003052 
	C518.495789,526.228638 520.969543,526.656799 523.442139,526.650146 
	C572.878845,526.517334 622.315552,526.331787 671.752197,526.163757 
	C680.575012,526.133728 689.400391,526.242432 698.218811,526.037048 
	C700.202026,525.990845 702.160889,524.896667 704.169434,524.251160 
	C704.169434,524.251160 704.218140,524.266785 704.820068,524.231384 
	C705.260498,523.844299 705.700928,523.457275 706.567993,522.886169 
	C706.836365,522.698242 707.001099,522.443298 707.578796,521.795105 
	C707.791321,521.240417 708.003845,520.685730 708.131836,520.004883 
	C708.131836,520.004883 708.200745,520.130859 708.829041,519.703186 
	C710.535217,515.418335 711.221741,511.276428 707.159119,507.943146 
	C707.159119,507.943146 707.219177,507.813171 707.103210,507.284790 
	C706.803406,507.114868 706.503601,506.944977 706.264282,506.839478 
	C706.264282,506.839478 706.290283,506.755066 706.219788,506.173584 
	C706.077393,505.809296 705.934937,505.445038 706.388428,504.684875 
	C714.232422,497.243683 707.452515,492.305267 703.830566,488.304993 
	C705.447998,483.408234 706.697449,479.625610 708.158020,475.217194 
	C708.837769,473.813782 709.517517,472.410370 710.972839,471.006775 
	C712.702820,471.517487 714.406067,472.188904 716.172119,472.483368 
	C717.385254,472.685608 719.678711,472.645142 719.795044,472.233856 
	C721.102661,467.611084 722.674011,462.931061 722.959778,458.193115 
	C723.184753,454.461517 721.571899,450.647797 721.044067,446.833344 
	C720.593079,443.574738 721.092651,440.998505 725.472107,440.702484 
	C726.721436,440.618073 728.310974,438.211639 728.753540,436.598175 
	C728.980530,435.770477 727.096069,433.425812 726.039368,433.340912 
	C720.523743,432.897858 720.909790,429.456238 721.217957,425.506714 
	C721.349487,423.820740 720.709229,421.757294 719.713074,420.374390 
	C718.190063,418.259888 714.667053,416.746857 714.430054,414.696747 
	C713.595093,407.474976 710.532837,404.636780 703.059326,403.109711 
	C698.457947,402.169464 694.626526,400.495148 689.709229,403.376892 
	C688.166992,397.372589 683.613403,397.887177 679.208435,397.989471 
	C676.713379,398.047424 674.186890,398.239746 671.725891,397.944427 
	C667.516357,397.439301 663.347107,396.598724 659.147339,395.896698 
	C661.381409,389.676910 665.195984,388.793396 670.191223,388.885498 
	C679.789246,389.062439 689.400024,388.545807 699.747070,388.135345 
	C701.508728,387.434204 703.270447,386.733093 705.539001,385.906403 
	C705.759888,385.642700 705.980713,385.379028 706.632324,384.924225 
M446.995697,631.458679 
	C455.829712,620.697021 460.058014,608.639099 458.036407,594.547363 
	C455.297791,575.457458 436.386353,558.263794 416.920715,558.113220 
	C383.630676,557.855774 364.833435,591.433472 377.841003,619.598999 
	C391.643555,649.485962 428.876068,652.471008 446.995697,631.458679 
M502.149109,565.744690 
	C500.289734,563.497803 498.862762,560.482727 496.490326,559.147156 
	C489.206787,555.046997 481.305328,560.761292 481.200958,570.079163 
	C481.049805,583.572632 481.126373,597.069092 481.152405,610.564148 
	C481.188171,629.124878 496.530853,644.621826 515.209167,645.808594 
	C537.267639,647.210144 552.419495,630.574402 553.637512,613.306091 
	C554.678528,598.548157 554.187317,583.661316 553.841797,568.843994 
	C553.772827,565.886414 551.874573,562.453735 549.789368,560.188965 
	C547.039429,557.202332 543.040894,556.738892 539.177124,558.680359 
	C535.107544,560.725220 532.935974,563.973267 532.904480,568.641846 
	C532.813477,582.133057 532.729919,595.625183 532.487915,609.114136 
	C532.370911,615.635193 529.621033,620.703186 523.307007,623.269043 
	C517.405273,625.667480 511.699768,624.560059 507.771820,619.937805 
	C505.194946,616.905396 503.245117,612.399536 503.050385,608.453125 
	C502.362030,594.502869 502.550568,580.509399 502.149109,565.744690 
M316.197754,515.365173 
	C318.472260,523.402710 323.174164,526.964844 331.943817,526.909485 
	C369.876068,526.670044 407.807831,526.350647 445.739929,526.084534 
	C454.354370,526.024109 462.986237,526.389832 471.579224,525.952637 
	C479.048676,525.572571 484.329834,520.083130 483.903198,514.218018 
	C483.496185,508.622314 477.746613,502.819977 470.454651,502.869202 
	C423.972931,503.183075 377.488129,503.038086 331.004364,503.059082 
	C322.008453,503.063141 318.644012,505.717499 316.197754,515.365173 
M292.345795,577.961182 
	C289.095215,591.361450 298.080444,604.091431 311.434296,607.358704 
	C314.821381,608.187378 318.259674,608.806152 321.672607,609.530029 
	C325.842712,610.414368 329.473663,611.973450 329.511108,617.049683 
	C329.538849,620.815125 325.838959,623.650818 320.632721,624.176575 
	C315.104187,624.734680 310.750641,622.177307 306.346710,619.265930 
	C301.378571,615.981628 295.295197,617.072021 291.975281,621.336792 
	C288.304535,626.052185 288.679352,631.119690 293.245636,635.673523 
	C299.140076,641.551880 306.432159,644.524597 314.606201,645.521057 
	C330.239594,647.426819 342.703766,640.437012 349.534241,626.295044 
	C356.107635,612.685364 345.170471,590.839661 327.031616,590.049866 
	C323.508392,589.896423 319.750366,588.908386 316.677185,587.242065 
	C315.113281,586.394165 313.895081,583.005859 314.256500,581.094055 
	C314.561707,579.479553 317.361328,577.239685 319.073090,577.225464 
	C322.242676,577.199158 325.538849,578.298035 328.577393,579.462830 
	C335.515137,582.122253 341.651001,580.688599 344.292358,575.433044 
	C346.725128,570.592529 344.289520,564.492676 338.083801,560.778809 
	C322.934967,551.712708 299.121460,555.524231 292.345795,577.961182 
M715.589844,573.030579 
	C711.242920,579.780273 706.896057,586.529968 702.218506,593.793091 
	C695.817627,583.940796 690.076904,574.804016 683.986328,565.906677 
	C682.068848,563.105530 679.536194,560.449585 676.709961,558.611694 
	C672.582764,555.927856 668.287476,557.135071 664.786865,560.300842 
	C661.522278,563.253113 661.381531,567.025024 663.146667,570.841125 
	C664.118103,572.941284 665.329468,574.950562 666.606689,576.885925 
	C673.756104,587.719116 681.175110,598.383240 688.007202,609.411560 
	C689.979675,612.595642 690.754028,616.731140 691.291504,620.541321 
	C691.938232,625.126526 691.465637,629.861816 691.986938,634.474487 
	C692.667908,640.500122 697.102783,644.508972 702.488586,644.585266 
	C707.407837,644.655029 712.217285,640.722717 713.153137,635.112976 
	C713.802856,631.218323 713.992676,627.126648 713.591187,623.204529 
	C712.959106,617.029114 713.610291,611.464050 717.557190,606.372559 
	C720.384644,602.725037 722.719543,598.695435 725.269409,594.833130 
	C729.847656,587.898254 734.260010,580.846436 739.052124,574.062866 
	C742.569214,569.084167 742.746216,564.426392 738.876099,560.649963 
	C734.711182,556.585999 728.965149,556.420837 724.692078,560.927246 
	C721.404724,564.394043 718.863159,568.567993 715.589844,573.030579 
M580.998718,583.500977 
	C581.005920,598.311890 580.923401,613.123657 581.053223,627.933472 
	C581.133972,637.143616 587.575806,643.855713 596.637085,644.010132 
	C608.566284,644.213501 620.503052,644.158691 632.433838,644.003418 
	C638.151428,643.929077 642.929688,639.185303 642.983276,634.068542 
	C643.043701,628.293945 638.656067,624.015259 632.373108,623.942139 
	C625.218506,623.858826 618.061890,623.969727 610.906372,623.940918 
	C603.500671,623.911072 602.104126,622.508911 602.097900,615.299072 
	C602.084534,599.822510 602.109070,584.345764 602.037109,568.869446 
	C602.004517,561.863220 598.300415,557.952820 591.942200,557.933350 
	C585.638367,557.914062 581.185608,562.383667 581.039429,569.022644 
	C580.940613,573.513794 581.007324,578.008667 580.998718,583.500977 
M527.045227,326.466797 
	C528.382263,320.051910 526.144287,314.943665 520.919128,311.322205 
	C516.299683,308.120605 511.165802,307.956604 506.338318,310.848206 
	C501.091309,313.991119 498.394684,318.735809 498.995667,325.029266 
	C499.557404,330.911987 504.829803,336.236572 511.075775,337.281708 
	C517.823669,338.410828 523.620544,334.725067 527.045227,326.466797 
M680.097473,393.680237 
	C680.051575,392.890564 680.005676,392.100922 679.959717,391.311218 
	C679.152710,391.687195 678.345764,392.063202 677.538818,392.439209 
	C678.171143,392.922180 678.803406,393.405151 680.097473,393.680237 
z"/>
<path fill="#FBECDA" opacity="1.000000" stroke="none" 
	d="
M324.991486,457.844910 
	C326.130432,456.901367 327.179138,455.810669 328.427277,455.045135 
	C330.956818,453.493774 333.575745,452.083740 336.193848,450.682770 
	C337.974762,449.729828 339.814545,448.141052 341.632050,448.135437 
	C348.394196,448.114410 355.158295,448.879303 361.921234,448.873199 
	C368.351044,448.867401 374.795441,448.433868 381.203247,447.854553 
	C384.272614,447.577087 384.906769,444.411530 382.750183,441.905731 
	C381.079712,439.964722 379.585632,437.871887 378.456543,435.430969 
	C381.935974,435.038849 384.971954,435.062317 388.068542,435.411621 
	C390.426453,438.576508 392.413391,438.648193 394.457092,435.029846 
	C399.929871,434.897888 404.937653,434.815948 410.413849,434.815094 
	C417.906342,434.857452 424.930450,434.818726 432.422272,434.840820 
	C444.326691,434.911346 455.763580,434.965424 467.199951,434.909485 
	C471.872559,434.886627 476.039795,433.546478 478.784576,429.390442 
	C483.649963,422.023529 480.071808,414.506378 469.997864,410.505585 
	C470.048798,408.017822 470.434479,406.144470 473.122833,407.770355 
	C477.433319,410.377258 479.334045,408.323120 480.825470,404.379364 
	C481.330780,403.043152 482.760620,401.472351 484.063446,401.128448 
	C488.464966,399.966736 492.999115,399.307434 497.758148,398.403748 
	C497.038696,394.752655 496.184113,391.230011 502.273315,392.816925 
	C505.652069,393.697479 504.797546,390.344543 505.437134,388.297363 
	C508.598907,388.270691 511.315399,388.329163 514.087036,388.627136 
	C514.750793,388.707520 515.359436,388.548431 516.394287,388.306274 
	C520.889343,388.166626 524.958252,388.110016 529.474243,388.079163 
	C532.297058,388.229950 534.672668,388.354980 537.183960,388.803467 
	C540.197327,388.912933 543.075073,388.699005 546.357422,388.385162 
	C547.867920,388.168854 548.973816,388.052490 550.501892,387.975891 
	C552.616821,388.142456 554.309570,388.269196 556.003174,388.779633 
	C556.672668,390.419556 557.415710,392.772400 557.996521,392.733002 
	C559.998291,392.597198 561.943359,391.626099 563.909973,390.973145 
	C563.817078,390.548309 563.724121,390.123444 563.631165,389.698608 
	C562.477356,389.265961 561.323547,388.833282 560.614746,388.291840 
	C574.887939,388.165405 588.716187,388.117645 602.544373,388.136230 
	C634.698120,388.179474 666.851807,388.254639 699.005554,388.316864 
	C689.400024,388.545807 679.789246,389.062439 670.191223,388.885498 
	C665.195984,388.793396 661.381409,389.676910 659.147339,395.896698 
	C663.347107,396.598724 667.516357,397.439301 671.725891,397.944427 
	C674.186890,398.239746 676.713379,398.047424 679.208435,397.989471 
	C683.613403,397.887177 688.166992,397.372589 689.709229,403.376892 
	C694.626526,400.495148 698.457947,402.169464 703.059326,403.109711 
	C710.532837,404.636780 713.595093,407.474976 714.430054,414.696747 
	C714.667053,416.746857 718.190063,418.259888 719.713074,420.374390 
	C720.709229,421.757294 721.349487,423.820740 721.217957,425.506714 
	C720.909790,429.456238 720.523743,432.897858 726.039368,433.340912 
	C727.096069,433.425812 728.980530,435.770477 728.753540,436.598175 
	C728.310974,438.211639 726.721436,440.618073 725.472107,440.702484 
	C721.092651,440.998505 720.593079,443.574738 721.044067,446.833344 
	C721.571899,450.647797 723.184753,454.461517 722.959778,458.193115 
	C722.674011,462.931061 721.102661,467.611084 719.795044,472.233856 
	C719.678711,472.645142 717.385254,472.685608 716.172119,472.483368 
	C714.406067,472.188904 712.702820,471.517487 710.587830,470.670715 
	C710.091492,461.475037 705.683044,457.079559 696.489075,457.066132 
	C654.527466,457.004852 612.565674,457.000061 570.603943,457.022675 
	C563.089478,457.026703 557.197510,462.357056 557.197754,468.897369 
	C557.198120,475.716827 563.129822,480.875549 570.959717,480.868622 
	C612.088745,480.832245 653.217834,480.736420 694.346558,480.834259 
	C699.672913,480.846924 704.150391,479.520203 707.946899,475.843018 
	C706.697449,479.625610 705.447998,483.408234 703.830566,488.304993 
	C707.452515,492.305267 714.232422,497.243683 705.800903,504.841553 
	C704.829224,504.930725 704.445068,504.863251 703.766846,504.551239 
	C700.372192,503.870239 697.271912,503.056274 694.170898,503.053253 
	C637.448914,502.998108 580.726929,503.039612 524.004883,503.064850 
	C522.341919,503.065582 520.664917,502.983795 519.018494,503.162018 
	C513.413025,503.768707 509.562836,507.838348 508.491943,514.146912 
	C507.618591,519.291809 509.456268,522.404907 514.995911,525.251282 
	C515.072754,525.467712 515.234314,525.897705 515.234314,525.897705 
	C503.330170,529.324951 503.156860,529.204163 504.006805,517.143311 
	C504.180634,514.676331 504.854156,512.216980 504.790924,509.767120 
	C504.685638,505.689056 505.832306,503.323700 510.662445,504.741852 
	C510.796936,503.042542 510.968628,501.745972 510.988342,500.447144 
	C511.032471,497.540558 511.516327,495.484741 515.348022,496.550201 
	C518.447998,497.412231 520.052368,495.815399 520.001587,492.579712 
	C519.945068,488.975616 519.935669,485.370728 520.272339,481.359253 
	C521.066772,480.927887 521.494690,480.903473 522.176575,481.161133 
	C524.270020,481.173798 528.391479,484.862793 527.105225,478.570374 
	C531.134888,475.002197 533.080383,471.111389 531.471558,465.938812 
	C529.687134,460.201752 525.233032,457.010132 518.686707,457.006409 
	C469.458282,456.978424 420.229858,456.960114 371.084534,456.590332 
	C372.601868,455.511627 374.036072,454.781433 376.127869,453.716400 
	C365.017914,450.427124 354.806274,452.596100 344.242645,453.443542 
	C345.461090,454.988159 346.230347,455.963348 346.532074,456.970612 
	C339.040222,457.283447 332.015839,457.564178 324.991486,457.844910 
M510.787689,412.849457 
	C504.780121,416.829590 503.487549,422.203552 507.034576,428.160095 
	C510.636078,434.208160 516.520630,434.869965 522.680542,434.869171 
	C580.090576,434.861969 637.500549,434.850983 694.910583,434.797882 
	C697.048645,434.795898 699.259644,434.619659 701.310181,434.060486 
	C707.059692,432.492767 710.222351,428.046326 710.011780,422.259308 
	C709.799744,416.430847 706.121033,412.370758 699.182800,410.939423 
	C697.526978,410.808594 695.870850,410.560883 694.215332,410.564178 
	C659.444824,410.633270 624.674438,410.722382 589.903992,410.825409 
	C565.611389,410.897400 541.318909,410.996063 516.402466,411.002960 
	C515.631775,411.261108 514.861145,411.519226 513.361633,411.863434 
	C512.730225,412.189453 512.098877,412.515472 510.787689,412.849457 
M590.567566,389.514771 
	C590.567566,389.514771 590.479553,389.562622 590.567566,389.514771 
z"/>
<path fill="#D2C09D" opacity="1.000000" stroke="none" 
	d="
M521.922607,480.879059 
	C521.494690,480.903473 521.066772,480.927887 520.318970,480.984131 
	C457.763550,480.984528 395.527985,480.960083 333.292480,480.894104 
	C330.989777,480.891663 328.638947,480.707092 326.394440,480.220520 
	C320.384888,478.917725 316.980927,475.132599 316.356873,469.417114 
	C315.856903,464.838135 318.858124,460.532806 324.643250,457.937225 
	C332.015839,457.564178 339.040222,457.283447 346.960052,457.001434 
	C349.570221,456.979645 351.284943,456.959137 353.332581,456.968750 
	C354.110413,456.978638 354.555237,456.958405 355.427917,456.966553 
	C357.570374,456.977234 359.285034,456.959503 361.332642,456.971558 
	C362.110443,456.981262 362.555298,456.961151 363.443542,456.968781 
	C366.258484,456.977264 368.629944,456.958008 371.001434,456.938782 
	C420.229858,456.960114 469.458282,456.978424 518.686707,457.006409 
	C525.233032,457.010132 529.687134,460.201752 531.471558,465.938812 
	C533.080383,471.111389 531.134888,475.002197 526.767944,478.643738 
	C524.805969,479.626801 523.364319,480.252930 521.922607,480.879059 
z"/>
<path fill="#D2C09D" opacity="1.000000" stroke="none" 
	d="
M446.746826,631.712219 
	C428.876068,652.471008 391.643555,649.485962 377.841003,619.598999 
	C364.833435,591.433472 383.630676,557.855774 416.920715,558.113220 
	C436.386353,558.263794 455.297791,575.457458 458.036407,594.547363 
	C460.058014,608.639099 455.829712,620.697021 446.746826,631.712219 
M437.024872,598.805115 
	C436.454010,587.978516 424.688507,580.051453 417.448273,579.962402 
	C407.446075,579.839355 398.047821,586.745667 396.133301,596.097046 
	C393.711792,607.924805 399.087341,618.191345 409.478241,622.054443 
	C422.426666,626.868347 438.926788,614.916077 437.024872,598.805115 
z"/>
<path fill="#E87D4A" opacity="1.000000" stroke="none" 
	d="
M514.919067,525.034851 
	C509.456268,522.404907 507.618591,519.291809 508.491943,514.146912 
	C509.562836,507.838348 513.413025,503.768707 519.018494,503.162018 
	C520.664917,502.983795 522.341919,503.065582 524.004883,503.064850 
	C580.726929,503.039612 637.448914,502.998108 694.170898,503.053253 
	C697.271912,503.056274 700.372192,503.870239 703.864075,504.858765 
	C704.933655,505.858917 705.611938,506.307007 706.290283,506.755066 
	C706.290283,506.755066 706.264282,506.839478 706.291626,507.071381 
	C706.619080,507.473236 706.919128,507.643219 707.219177,507.813171 
	C707.219177,507.813171 707.159119,507.943146 707.258789,508.285278 
	C707.639282,512.461914 707.919983,516.296387 708.200745,520.130859 
	C708.200745,520.130859 708.131836,520.004883 707.882935,520.195312 
	C707.443420,520.964233 707.252808,521.542847 707.062195,522.121399 
	C707.001099,522.443298 706.836365,522.698242 706.036011,522.984619 
	C705.075378,523.477661 704.646790,523.872253 704.218140,524.266846 
	C704.218140,524.266785 704.169434,524.251160 703.723572,524.187378 
	C699.816772,524.415710 696.356079,524.958984 692.894836,524.962646 
	C633.569641,525.026306 574.244324,525.023254 514.919067,525.034851 
z"/>
<path fill="#D1BD9C" opacity="1.000000" stroke="none" 
	d="
M316.193695,379.748596 
	C316.155762,369.584381 320.516235,364.982117 330.523010,364.970673 
	C384.045990,364.909576 437.569092,364.902588 491.276062,365.195465 
	C483.026489,366.862671 483.055573,366.862885 482.985168,376.158478 
	C482.970245,378.129639 482.923431,380.169495 482.420868,382.052124 
	C481.637695,384.986206 482.626373,385.818207 485.506287,386.059601 
	C490.688812,386.494049 495.834045,387.373871 500.527100,388.092529 
	C462.704956,388.393188 425.350555,388.668884 387.568909,388.923248 
	C385.430603,388.916473 383.719513,388.931061 381.606873,388.929138 
	C380.133911,388.922852 379.062439,388.933075 377.596832,388.877563 
	C375.730011,388.580383 374.252625,388.123230 372.785492,388.154083 
	C363.192780,388.355774 353.602295,388.663116 343.541931,388.920807 
	C336.053711,388.254242 329.034607,387.602844 321.806885,386.694580 
	C319.796753,384.208038 317.995209,381.978333 316.193695,379.748596 
z"/>
<path fill="#E78250" opacity="1.000000" stroke="none" 
	d="
M502.277893,566.138489 
	C502.550568,580.509399 502.362030,594.502869 503.050385,608.453125 
	C503.245117,612.399536 505.194946,616.905396 507.771820,619.937805 
	C511.699768,624.560059 517.405273,625.667480 523.307007,623.269043 
	C529.621033,620.703186 532.370911,615.635193 532.487915,609.114136 
	C532.729919,595.625183 532.813477,582.133057 532.904480,568.641846 
	C532.935974,563.973267 535.107544,560.725220 539.177124,558.680359 
	C543.040894,556.738892 547.039429,557.202332 549.789368,560.188965 
	C551.874573,562.453735 553.772827,565.886414 553.841797,568.843994 
	C554.187317,583.661316 554.678528,598.548157 553.637512,613.306091 
	C552.419495,630.574402 537.267639,647.210144 515.209167,645.808594 
	C496.530853,644.621826 481.188171,629.124878 481.152405,610.564148 
	C481.126373,597.069092 481.049805,583.572632 481.200958,570.079163 
	C481.305328,560.761292 489.206787,555.046997 496.490326,559.147156 
	C498.862762,560.482727 500.289734,563.497803 502.277893,566.138489 
z"/>
<path fill="#D1BD9C" opacity="1.000000" stroke="none" 
	d="
M316.199738,514.982117 
	C318.644012,505.717499 322.008453,503.063141 331.004364,503.059082 
	C377.488129,503.038086 423.972931,503.183075 470.454651,502.869202 
	C477.746613,502.819977 483.496185,508.622314 483.903198,514.218018 
	C484.329834,520.083130 479.048676,525.572571 471.579224,525.952637 
	C462.986237,526.389832 454.354370,526.024109 445.739929,526.084534 
	C407.807831,526.350647 369.876068,526.670044 331.943817,526.909485 
	C323.174164,526.964844 318.472260,523.402710 316.199738,514.982117 
z"/>
<path fill="#E78250" opacity="1.000000" stroke="none" 
	d="
M292.462982,577.581177 
	C299.121460,555.524231 322.934967,551.712708 338.083801,560.778809 
	C344.289520,564.492676 346.725128,570.592529 344.292358,575.433044 
	C341.651001,580.688599 335.515137,582.122253 328.577393,579.462830 
	C325.538849,578.298035 322.242676,577.199158 319.073090,577.225464 
	C317.361328,577.239685 314.561707,579.479553 314.256500,581.094055 
	C313.895081,583.005859 315.113281,586.394165 316.677185,587.242065 
	C319.750366,588.908386 323.508392,589.896423 327.031616,590.049866 
	C345.170471,590.839661 356.107635,612.685364 349.534241,626.295044 
	C342.703766,640.437012 330.239594,647.426819 314.606201,645.521057 
	C306.432159,644.524597 299.140076,641.551880 293.245636,635.673523 
	C288.679352,631.119690 288.304535,626.052185 291.975281,621.336792 
	C295.295197,617.072021 301.378571,615.981628 306.346710,619.265930 
	C310.750641,622.177307 315.104187,624.734680 320.632721,624.176575 
	C325.838959,623.650818 329.538849,620.815125 329.511108,617.049683 
	C329.473663,611.973450 325.842712,610.414368 321.672607,609.530029 
	C318.259674,608.806152 314.821381,608.187378 311.434296,607.358704 
	C298.080444,604.091431 289.095215,591.361450 292.462982,577.581177 
z"/>
<path fill="#E9824D" opacity="1.000000" stroke="none" 
	d="
M708.052490,475.530090 
	C704.150391,479.520203 699.672913,480.846924 694.346558,480.834259 
	C653.217834,480.736420 612.088745,480.832245 570.959717,480.868622 
	C563.129822,480.875549 557.198120,475.716827 557.197754,468.897369 
	C557.197510,462.357056 563.089478,457.026703 570.603943,457.022675 
	C612.565674,457.000061 654.527466,457.004852 696.489075,457.066132 
	C705.683044,457.079559 710.091492,461.475037 710.200073,470.670837 
	C709.517517,472.410370 708.837769,473.813782 708.052490,475.530090 
z"/>
<path fill="#E58552" opacity="1.000000" stroke="none" 
	d="
M715.789917,572.729004 
	C718.863159,568.567993 721.404724,564.394043 724.692078,560.927246 
	C728.965149,556.420837 734.711182,556.585999 738.876099,560.649963 
	C742.746216,564.426392 742.569214,569.084167 739.052124,574.062866 
	C734.260010,580.846436 729.847656,587.898254 725.269409,594.833130 
	C722.719543,598.695435 720.384644,602.725037 717.557190,606.372559 
	C713.610291,611.464050 712.959106,617.029114 713.591187,623.204529 
	C713.992676,627.126648 713.802856,631.218323 713.153137,635.112976 
	C712.217285,640.722717 707.407837,644.655029 702.488586,644.585266 
	C697.102783,644.508972 692.667908,640.500122 691.986938,634.474487 
	C691.465637,629.861816 691.938232,625.126526 691.291504,620.541321 
	C690.754028,616.731140 689.979675,612.595642 688.007202,609.411560 
	C681.175110,598.383240 673.756104,587.719116 666.606689,576.885925 
	C665.329468,574.950562 664.118103,572.941284 663.146667,570.841125 
	C661.381531,567.025024 661.522278,563.253113 664.786865,560.300842 
	C668.287476,557.135071 672.582764,555.927856 676.709961,558.611694 
	C679.536194,560.449585 682.068848,563.105530 683.986328,565.906677 
	C690.076904,574.804016 695.817627,583.940796 702.218506,593.793091 
	C706.896057,586.529968 711.242920,579.780273 715.789917,572.729004 
z"/>
<path fill="#D1BD9C" opacity="1.000000" stroke="none" 
	d="
M580.999390,583.001404 
	C581.007324,578.008667 580.940613,573.513794 581.039429,569.022644 
	C581.185608,562.383667 585.638367,557.914062 591.942200,557.933350 
	C598.300415,557.952820 602.004517,561.863220 602.037109,568.869446 
	C602.109070,584.345764 602.084534,599.822510 602.097900,615.299072 
	C602.104126,622.508911 603.500671,623.911072 610.906372,623.940918 
	C618.061890,623.969727 625.218506,623.858826 632.373108,623.942139 
	C638.656067,624.015259 643.043701,628.293945 642.983276,634.068542 
	C642.929688,639.185303 638.151428,643.929077 632.433838,644.003418 
	C620.503052,644.158691 608.566284,644.213501 596.637085,644.010132 
	C587.575806,643.855713 581.133972,637.143616 581.053223,627.933472 
	C580.923401,613.123657 581.005920,598.311890 580.999390,583.001404 
z"/>
<path fill="#EB8E5B" opacity="1.000000" stroke="none" 
	d="
M545.974060,364.934875 
	C547.605713,364.749359 549.237183,364.403412 550.869019,364.401611 
	C598.287170,364.349365 645.705383,364.327637 693.123535,364.320343 
	C695.281616,364.320007 697.474060,364.287811 699.591980,364.631317 
	C709.303345,366.206482 713.194275,375.453003 707.371460,383.891602 
	C707.029419,384.035065 706.912781,383.931915 707.004639,383.533325 
	C710.131653,372.607941 706.471008,366.060181 697.201233,366.030182 
	C666.734924,365.931610 636.267883,365.948975 605.802185,366.116058 
	C604.039001,366.125732 601.244324,367.459473 600.708313,368.858490 
	C598.450623,374.750946 596.868408,380.902191 594.568115,386.971680 
	C584.752625,386.989746 575.408020,386.994873 565.991943,386.617889 
	C562.436829,379.434479 563.490540,372.950958 568.439514,365.999786 
	C564.241455,365.999786 561.148438,366.133881 558.071716,365.966583 
	C554.032410,365.746948 550.005981,365.289856 545.974060,364.934875 
z"/>
<path fill="#E0A576" opacity="1.000000" stroke="none" 
	d="
M545.509888,364.877380 
	C550.005981,365.289856 554.032410,365.746948 558.071716,365.966583 
	C561.148438,366.133881 564.241455,365.999786 568.439514,365.999786 
	C563.490540,372.950958 562.436829,379.434479 565.518311,386.622864 
	C560.104065,387.318695 555.091919,387.627380 550.079712,387.936096 
	C548.973816,388.052490 547.867920,388.168854 545.924316,388.270386 
	C542.407166,388.330383 539.727722,388.405212 537.048340,388.480042 
	C534.672668,388.354980 532.297058,388.229950 529.223511,387.806152 
	C526.817810,386.975952 524.656494,386.912842 523.509705,385.802185 
	C521.830322,384.175568 519.818359,381.788910 519.836853,379.743134 
	C519.874756,375.531555 521.163208,371.331268 521.960815,366.997375 
	C520.526672,366.261505 519.255127,365.609070 517.983582,364.956635 
	C527.004272,364.911041 536.025024,364.865448 545.509888,364.877380 
z"/>
<path fill="#FBECDA" opacity="1.000000" stroke="none" 
	d="
M315.985077,380.016602 
	C317.995209,381.978333 319.796753,384.208038 321.812439,387.103638 
	C322.112488,388.250732 322.039948,388.859741 322.309021,389.192993 
	C324.588684,392.016632 341.373199,391.787720 344.011078,388.935974 
	C353.602295,388.663116 363.192780,388.355774 372.785492,388.154083 
	C374.252625,388.123230 375.730011,388.580383 377.665527,389.225250 
	C379.833588,391.713318 381.158813,391.660919 382.008423,388.945618 
	C383.719513,388.931061 385.430603,388.916473 387.563385,389.298767 
	C386.065369,394.336853 382.564514,396.182495 378.124695,394.894012 
	C371.142578,392.867676 369.908539,393.710846 370.046112,400.930603 
	C370.108124,404.185028 370.668945,407.429962 370.606262,410.751160 
	C369.135864,410.908600 368.062622,410.994080 366.571930,411.038025 
	C356.767670,410.905426 347.380859,410.814423 337.994049,410.723419 
	C335.287109,400.254120 335.287384,400.265076 346.656769,399.983368 
	C347.865845,399.953430 349.069366,399.701324 350.275482,399.552277 
	C350.278076,399.034851 350.280670,398.517426 350.283264,398.000000 
	C346.973938,398.000000 343.626801,398.309753 340.366058,397.911743 
	C337.186462,397.523712 334.118225,396.300568 330.958954,395.648163 
	C327.531891,394.940430 324.057220,394.461731 320.601013,393.897278 
	C319.476959,393.713745 317.676910,393.961334 317.325104,393.352997 
	C314.867798,389.103851 312.709442,384.681793 309.971008,379.376862 
	C312.875092,379.830963 314.325775,380.057770 315.985077,380.016602 
z"/>
<path fill="#D9B286" opacity="1.000000" stroke="none" 
	d="
M517.517944,364.915894 
	C519.255127,365.609070 520.526672,366.261505 521.960815,366.997375 
	C521.163208,371.331268 519.874756,375.531555 519.836853,379.743134 
	C519.818359,381.788910 521.830322,384.175568 523.509705,385.802185 
	C524.656494,386.912842 526.817810,386.975952 528.776367,387.780396 
	C524.958252,388.110016 520.889343,388.166626 516.075195,388.221741 
	C514.897217,388.276031 514.464539,388.331818 514.031921,388.387634 
	C511.315399,388.329163 508.598907,388.270691 505.045135,388.202423 
	C503.136871,388.150940 502.065857,388.109283 500.994843,388.067627 
	C495.834045,387.373871 490.688812,386.494049 485.506287,386.059601 
	C482.626373,385.818207 481.637695,384.986206 482.420868,382.052124 
	C482.923431,380.169495 482.970245,378.129639 482.985168,376.158478 
	C483.055573,366.862885 483.026489,366.862671 491.745911,365.227417 
	C500.371979,364.918945 508.712128,364.897034 517.517944,364.915894 
z"/>
<path fill="#EB8E5B" opacity="1.000000" stroke="none" 
	d="
M337.543884,410.791901 
	C347.380859,410.814423 356.767670,410.905426 366.890503,411.301819 
	C370.910522,411.742798 374.193512,411.955200 377.478729,411.997681 
	C383.917725,412.080902 385.908844,414.046631 385.984314,420.580963 
	C386.116882,432.053741 386.116852,432.053741 376.021484,434.733826 
	C375.565460,434.761444 375.109436,434.789093 373.978088,434.550171 
	C363.869720,434.189453 354.436676,434.095337 345.044434,433.651550 
	C347.612091,428.207306 350.081726,423.083252 352.681854,418.026306 
	C355.369934,412.798279 354.971222,411.916321 349.108643,412.037933 
	C340.044586,412.225891 330.985199,412.639526 322.165588,412.691406 
	C324.269714,411.856628 326.132080,411.287903 327.994476,410.719177 
	C331.027557,410.766235 334.060638,410.813293 337.543884,410.791901 
z"/>
<path fill="#E9824D" opacity="1.000000" stroke="none" 
	d="
M321.923828,412.957520 
	C330.985199,412.639526 340.044586,412.225891 349.108643,412.037933 
	C354.971222,411.916321 355.369934,412.798279 352.681854,418.026306 
	C350.081726,423.083252 347.612091,428.207306 344.576782,433.656799 
	C338.707794,434.264313 333.347198,434.516876 327.986603,434.769440 
	C327.525665,434.698669 327.064758,434.627899 326.127716,434.341187 
	C325.429901,434.015533 325.196777,433.979645 324.952240,434.017609 
	C324.952240,434.017609 324.476318,434.048462 323.960693,433.874329 
	C321.195374,430.831299 318.945679,427.962402 316.695984,425.093536 
	C316.839600,422.724976 316.983185,420.356445 317.435669,417.360474 
	C319.137634,415.474548 320.530731,414.216034 321.923828,412.957520 
z"/>
<path fill="#E78250" opacity="1.000000" stroke="none" 
	d="
M526.970703,326.844788 
	C523.620544,334.725067 517.823669,338.410828 511.075775,337.281708 
	C504.829803,336.236572 499.557404,330.911987 498.995667,325.029266 
	C498.394684,318.735809 501.091309,313.991119 506.338318,310.848206 
	C511.165802,307.956604 516.299683,308.120605 520.919128,311.322205 
	C526.144287,314.943665 528.382263,320.051910 526.970703,326.844788 
z"/>
<path fill="#E0A576" opacity="1.000000" stroke="none" 
	d="
M376.344482,434.826050 
	C386.116852,432.053741 386.116882,432.053741 385.984314,420.580963 
	C385.908844,414.046631 383.917725,412.080902 377.478729,411.997681 
	C374.193512,411.955200 370.910522,411.742798 367.307953,411.343384 
	C368.062622,410.994080 369.135864,410.908600 370.995483,410.824707 
	C373.581024,410.707184 375.380127,410.588104 377.585266,410.436279 
	C382.621826,410.398682 387.252380,410.393860 392.159698,410.552368 
	C393.292450,410.831970 394.148376,410.948181 395.314453,411.331482 
	C397.590851,411.733429 399.573334,411.755524 401.518677,412.035675 
	C403.384430,412.304382 405.601410,412.318390 406.986725,413.352051 
	C412.326660,417.336670 413.943878,422.625275 411.512299,429.023193 
	C410.814240,430.860016 410.458252,432.826813 409.945435,434.734009 
	C404.937653,434.815948 399.929871,434.897888 394.031616,434.982635 
	C391.430054,435.018921 389.719025,435.052368 388.007965,435.085815 
	C384.971954,435.062317 381.935974,435.038849 378.447632,435.070068 
	C377.552704,435.055939 377.110107,434.987091 376.344482,434.826050 
z"/>
<path fill="#E58552" opacity="1.000000" stroke="none" 
	d="
M514.995911,525.251282 
	C574.244324,525.023254 633.569641,525.026306 692.894836,524.962646 
	C696.356079,524.958984 699.816772,524.415710 703.704346,524.204224 
	C702.160889,524.896667 700.202026,525.990845 698.218811,526.037048 
	C689.400391,526.242432 680.575012,526.133728 671.752197,526.163757 
	C622.315552,526.331787 572.878845,526.517334 523.442139,526.650146 
	C520.969543,526.656799 518.495789,526.228638 515.628418,525.950378 
	C515.234314,525.897705 515.072754,525.467712 514.995911,525.251282 
z"/>
<path fill="#E58552" opacity="1.000000" stroke="none" 
	d="
M550.501892,387.975891 
	C555.091919,387.627380 560.104065,387.318695 565.589844,387.005005 
	C575.408020,386.994873 584.752625,386.989746 594.960815,386.982666 
	C596.875977,386.975311 597.927429,386.969849 599.239258,386.971771 
	C599.673279,386.974579 599.846863,386.970001 600.486694,386.972351 
	C606.302307,386.976257 611.651733,386.973267 617.458740,386.979156 
	C621.272034,386.981232 624.627808,386.974426 628.387329,386.974243 
	C629.868225,386.974823 630.945190,386.968750 632.434814,386.972412 
	C634.223511,386.975189 635.599670,386.968262 637.356567,386.969269 
	C638.499023,386.972107 639.260620,386.967072 640.488281,386.972473 
	C659.628662,386.981934 678.303101,386.980927 697.392883,386.983978 
	C700.184875,386.630890 702.561523,386.273773 704.960938,385.946045 
	C704.983704,385.975433 705.032104,386.031952 705.032104,386.031952 
	C703.270447,386.733093 701.508728,387.434204 699.376343,388.226105 
	C666.851807,388.254639 634.698120,388.179474 602.544373,388.136230 
	C588.716187,388.117645 574.887939,388.165405 560.201721,388.186523 
	C558.229919,388.258636 557.116150,388.327271 556.002319,388.395935 
	C554.309570,388.269196 552.616821,388.142456 550.501892,387.975891 
z"/>
<path fill="#FBECDA" opacity="1.000000" stroke="none" 
	d="
M316.494202,425.353516 
	C318.945679,427.962402 321.195374,430.831299 323.724182,433.904968 
	C323.491882,435.343201 322.980469,436.576660 322.469055,437.810120 
	C320.945312,436.334198 319.421600,434.858276 317.667053,433.158783 
	C316.338196,433.868378 314.209961,435.004791 312.081696,436.141235 
	C311.718262,435.773743 311.354828,435.406250 310.991394,435.038757 
	C312.758392,431.897003 314.525391,428.755249 316.494202,425.353516 
z"/>
<path fill="#E0A576" opacity="1.000000" stroke="none" 
	d="
M328.446106,434.873016 
	C333.347198,434.516876 338.707794,434.264313 344.536011,434.006470 
	C354.436676,434.095337 363.869720,434.189453 373.636841,434.513733 
	C358.949158,434.821442 343.927399,434.899017 328.446106,434.873016 
z"/>
<path fill="#FBECDA" opacity="1.000000" stroke="none" 
	d="
M322.165588,412.691437 
	C320.530731,414.216034 319.137634,415.474548 317.483124,416.919525 
	C314.020142,412.773712 314.161896,412.129944 319.311157,410.995667 
	C322.067047,410.388641 324.945953,410.340118 327.881897,410.379364 
	C326.132080,411.287903 324.269714,411.856628 322.165588,412.691437 
z"/>
<path fill="#E58552" opacity="1.000000" stroke="none" 
	d="
M708.514893,519.916992 
	C707.919983,516.296387 707.639282,512.461914 707.259583,508.213684 
	C711.221741,511.276428 710.535217,515.418335 708.514893,519.916992 
z"/>
<path fill="#FBECDA" opacity="1.000000" stroke="none" 
	d="
M679.766602,393.784180 
	C678.803406,393.405151 678.171143,392.922180 677.538818,392.439209 
	C678.345764,392.063202 679.152710,391.687195 679.959717,391.311218 
	C680.005676,392.100922 680.051575,392.890564 679.766602,393.784180 
z"/>
<path fill="#E58552" opacity="1.000000" stroke="none" 
	d="
M706.255005,506.464355 
	C705.611938,506.307007 704.933655,505.858917 704.158142,505.103302 
	C704.445068,504.863251 704.829224,504.930725 705.502930,505.039490 
	C705.934937,505.445038 706.077393,505.809296 706.255005,506.464355 
z"/>
<path fill="#E58552" opacity="1.000000" stroke="none" 
	d="
M707.320496,521.958252 
	C707.252808,521.542847 707.443420,520.964233 707.925171,520.258362 
	C708.003845,520.685730 707.791321,521.240417 707.320496,521.958252 
z"/>
<path fill="#E58552" opacity="1.000000" stroke="none" 
	d="
M704.519165,524.249146 
	C704.646790,523.872253 705.075378,523.477661 705.822693,523.076660 
	C705.700928,523.457275 705.260498,523.844299 704.519165,524.249146 
z"/>
<path fill="#E58552" opacity="1.000000" stroke="none" 
	d="
M707.161194,507.548981 
	C706.919128,507.643219 706.619080,507.473236 706.261414,507.039185 
	C706.503601,506.944977 706.803406,507.114868 707.161194,507.548981 
z"/>
<path fill="#E0A576" opacity="1.000000" stroke="none" 
	d="
M325.082947,434.169067 
	C325.196777,433.979645 325.429901,434.015533 325.798340,434.220337 
	C325.945038,434.315399 325.580536,434.469208 325.580536,434.469208 
	C325.580536,434.469208 325.213684,434.320526 325.082947,434.169067 
z"/>
<path fill="#E58552" opacity="1.000000" stroke="none" 
	d="
M706.201538,385.115356 
	C705.980713,385.379028 705.759888,385.642700 705.285522,385.969177 
	C705.032104,386.031952 704.983704,385.975433 705.087158,385.753143 
	C705.390015,385.289490 705.632263,385.104126 705.987122,385.012390 
	C706.056946,385.050049 706.201538,385.115326 706.201538,385.115356 
z"/>
<path fill="#EB8E5B" opacity="1.000000" stroke="none" 
	d="
M707.085938,384.088623 
	C707.062805,384.461914 706.892822,384.722565 706.416931,385.019775 
	C706.201538,385.115326 706.056946,385.050049 706.119507,384.807831 
	C706.386963,384.309814 706.630554,384.098572 706.912781,383.931915 
	C706.912781,383.931915 707.029419,384.035065 707.085938,384.088623 
z"/>
<path fill="#E8804E" opacity="1.000000" stroke="none" 
	d="
M514.090454,411.777344 
	C514.861145,411.519226 515.631775,411.261108 517.028198,411.309052 
	C518.632507,411.742950 519.611084,411.982330 520.589783,411.982635 
	C578.953552,412.000916 637.317383,412.005524 695.681152,411.964722 
	C697.104736,411.963745 698.528015,411.437317 699.951416,411.155975 
	C706.121033,412.370758 709.799744,416.430847 710.011780,422.259308 
	C710.222351,428.046326 707.059692,432.492767 701.310181,434.060486 
	C699.259644,434.619659 697.048645,434.795898 694.910583,434.797882 
	C637.500549,434.850983 580.090576,434.861969 522.680542,434.869171 
	C516.520630,434.869965 510.636078,434.208160 507.034576,428.160095 
	C503.487549,422.203552 504.780121,416.829590 511.509949,412.861084 
	C512.851624,412.507629 513.471069,412.142487 514.090454,411.777344 
z"/>
<path fill="#FDEEDD" opacity="1.000000" stroke="none" 
	d="
M377.179260,410.469055 
	C375.380127,410.588104 373.581024,410.707184 371.392639,410.752747 
	C370.668945,407.429962 370.108124,404.185028 370.046112,400.930603 
	C369.908539,393.710846 371.142578,392.867676 378.124695,394.894012 
	C382.564514,396.182495 386.065369,394.336853 387.990601,389.320068 
	C425.350555,388.668884 462.704956,388.393188 500.527100,388.092560 
	C502.065857,388.109283 503.136871,388.150940 504.599915,388.287567 
	C504.797546,390.344543 505.652069,393.697479 502.273315,392.816925 
	C496.184113,391.230011 497.038696,394.752655 497.758148,398.403748 
	C492.999115,399.307434 488.464966,399.966736 484.063446,401.128448 
	C482.760620,401.472351 481.330780,403.043152 480.825470,404.379364 
	C479.334045,408.323120 477.433319,410.377258 473.122833,407.770355 
	C470.434479,406.144470 470.048798,408.017822 469.582947,410.535889 
	C467.780426,410.893372 466.396515,410.841827 465.017700,410.439697 
	C467.752960,402.881134 465.934418,400.205780 458.165405,400.000946 
	C448.399994,399.743469 448.164459,400.020691 448.523682,410.849548 
	C442.035828,410.953979 436.013245,411.012360 429.537964,411.038940 
	C426.060394,410.940948 423.035492,410.874695 420.020447,410.424744 
	C422.051453,401.849792 420.579407,400.008636 411.997742,400.000549 
	C408.686218,399.997406 405.335297,399.689148 402.075989,400.101807 
	C399.595245,400.415833 397.230835,401.648865 395.080658,402.382294 
	C392.727051,401.634277 390.181091,400.721741 387.575073,400.038300 
	C386.162018,399.667755 384.520874,399.997437 383.204865,399.463501 
	C380.837250,398.502930 378.200989,396.971985 376.755310,399.992523 
	C375.779663,402.031097 376.124939,404.766876 376.146454,407.188385 
	C376.156219,408.284943 376.814941,409.375671 377.179260,410.469055 
M475.395660,393.307678 
	C476.009857,393.705139 476.624023,394.102631 477.238220,394.500092 
	C477.363373,393.925079 477.488495,393.350067 477.613617,392.775055 
	C476.909790,392.745361 476.205963,392.715668 475.395660,393.307678 
M489.526794,394.277740 
	C489.273834,394.011780 489.023193,393.743347 488.754944,393.493896 
	C488.748047,393.487518 488.547577,393.689301 488.437378,393.793976 
	C488.690643,394.060028 488.943909,394.326050 489.526794,394.277740 
z"/>
<path fill="#D1BD9C" opacity="1.000000" stroke="none" 
	d="
M429.990662,411.070740 
	C436.013245,411.012360 442.035828,410.953979 448.989197,410.906097 
	C454.950836,410.874481 459.981750,410.832367 465.012634,410.790283 
	C466.396515,410.841827 467.780426,410.893372 469.579254,410.914673 
	C480.071808,414.506378 483.649963,422.023529 478.784576,429.390442 
	C476.039795,433.546478 471.872559,434.886627 467.199951,434.909485 
	C455.763580,434.965424 444.326691,434.911346 432.496765,434.496582 
	C436.584656,427.617981 436.219421,419.696808 431.238251,413.661407 
	C430.645813,412.943573 430.398132,411.941223 429.990662,411.070740 
z"/>
<path fill="#D9B286" opacity="1.000000" stroke="none" 
	d="
M429.537964,411.038940 
	C430.398132,411.941223 430.645813,412.943573 431.238251,413.661407 
	C436.219421,419.696808 436.584656,427.617981 432.028992,434.435791 
	C424.930450,434.818726 417.906342,434.857452 410.413849,434.815094 
	C410.458252,432.826813 410.814240,430.860016 411.512299,429.023193 
	C413.943878,422.625275 412.326660,417.336670 406.986725,413.352051 
	C405.601410,412.318390 403.384430,412.304382 401.518677,412.035675 
	C399.573334,411.755524 397.590851,411.733429 395.518097,411.137878 
	C395.945740,410.524078 396.479919,410.370972 397.392822,410.381836 
	C405.184601,410.633331 412.597595,410.720886 420.010590,410.808441 
	C423.035492,410.874695 426.060394,410.940948 429.537964,411.038940 
z"/>
<path fill="#E58552" opacity="1.000000" stroke="none" 
	d="
M699.567139,411.047699 
	C698.528015,411.437317 697.104736,411.963745 695.681152,411.964722 
	C637.317383,412.005524 578.953552,412.000916 520.589783,411.982635 
	C519.611084,411.982330 518.632507,411.742950 517.340088,411.348999 
	C541.318909,410.996063 565.611389,410.897400 589.903992,410.825409 
	C624.674438,410.722382 659.444824,410.633270 694.215332,410.564178 
	C695.870850,410.560883 697.526978,410.808594 699.567139,411.047699 
z"/>
<path fill="#FDEEDD" opacity="1.000000" stroke="none" 
	d="
M360.999695,456.941772 
	C359.285034,456.959503 357.570374,456.977234 355.381348,456.684875 
	C354.590057,456.075745 354.273102,455.776672 353.956146,455.477631 
	C353.637329,455.964630 353.318481,456.451630 352.999634,456.938599 
	C351.284943,456.959137 349.570221,456.979645 347.427551,456.969360 
	C346.230347,455.963348 345.461090,454.988159 344.242645,453.443542 
	C354.806274,452.596100 365.017914,450.427124 376.127869,453.716400 
	C374.036072,454.781433 372.601868,455.511627 371.084534,456.590302 
	C368.629944,456.958008 366.258484,456.977264 363.397156,456.686676 
	C362.590179,456.077271 362.273041,455.777740 361.955933,455.478180 
	C361.637177,455.966034 361.318420,456.453918 360.999695,456.941772 
z"/>
<path fill="#FDEEDD" opacity="1.000000" stroke="none" 
	d="
M556.003174,388.779633 
	C557.116150,388.327271 558.229919,388.258636 559.756714,388.295319 
	C561.323547,388.833282 562.477356,389.265961 563.631165,389.698608 
	C563.724121,390.123444 563.817078,390.548309 563.909973,390.973145 
	C561.943359,391.626099 559.998291,392.597198 557.996521,392.733002 
	C557.415710,392.772400 556.672668,390.419556 556.003174,388.779633 
z"/>
<path fill="#FDEEDD" opacity="1.000000" stroke="none" 
	d="
M537.183960,388.803467 
	C539.727722,388.405212 542.407166,388.330383 545.519653,388.370300 
	C543.075073,388.699005 540.197327,388.912933 537.183960,388.803467 
z"/>
<path fill="#FDEEDD" opacity="1.000000" stroke="none" 
	d="
M388.068542,435.411652 
	C389.719025,435.052368 391.430054,435.018921 393.566589,435.032684 
	C392.413391,438.648193 390.426453,438.576508 388.068542,435.411652 
z"/>
<path fill="#FDEEDD" opacity="1.000000" stroke="none" 
	d="
M522.176575,481.161133 
	C523.364319,480.252930 524.805969,479.626801 526.584961,478.927246 
	C528.391479,484.862793 524.270020,481.173798 522.176575,481.161133 
z"/>
<path fill="#FDEEDD" opacity="1.000000" stroke="none" 
	d="
M514.087036,388.627136 
	C514.464539,388.331818 514.897217,388.276031 515.648987,388.304810 
	C515.359436,388.548431 514.750793,388.707520 514.087036,388.627136 
z"/>
<path fill="#E58552" opacity="1.000000" stroke="none" 
	d="
M513.726074,411.820374 
	C513.471069,412.142487 512.851624,412.507629 511.849854,412.857117 
	C512.098877,412.515472 512.730225,412.189453 513.726074,411.820374 
z"/>
<path fill="#FDEEDD" opacity="1.000000" stroke="none" 
	d="
M590.523560,389.538696 
	C590.479553,389.562622 590.567566,389.514771 590.523560,389.538696 
z"/>
<path fill="#FBECDA" opacity="1.000000" stroke="none" 
	d="
M361.332642,456.971558 
	C361.318420,456.453918 361.637177,455.966034 361.955933,455.478180 
	C362.273041,455.777740 362.590179,456.077271 362.953705,456.658936 
	C362.555298,456.961151 362.110443,456.981262 361.332642,456.971558 
z"/>
<path fill="#FBECDA" opacity="1.000000" stroke="none" 
	d="
M353.332581,456.968750 
	C353.318481,456.451630 353.637329,455.964630 353.956146,455.477631 
	C354.273102,455.776672 354.590057,456.075745 354.953552,456.656494 
	C354.555237,456.958405 354.110413,456.978638 353.332581,456.968750 
z"/>
<path fill="#FBECDA" opacity="1.000000" stroke="none" 
	d="
M437.029602,599.248169 
	C438.926788,614.916077 422.426666,626.868347 409.478241,622.054443 
	C399.087341,618.191345 393.711792,607.924805 396.133301,596.097046 
	C398.047821,586.745667 407.446075,579.839355 417.448273,579.962402 
	C424.688507,580.051453 436.454010,587.978516 437.029602,599.248169 
z"/>
<path fill="#FDEEDD" opacity="1.000000" stroke="none" 
	d="
M343.541931,388.920807 
	C341.373199,391.787720 324.588684,392.016632 322.309021,389.192993 
	C322.039948,388.859741 322.112488,388.250732 322.021088,387.360474 
	C329.034607,387.602844 336.053711,388.254242 343.541931,388.920807 
z"/>
<path fill="#FDEEDD" opacity="1.000000" stroke="none" 
	d="
M381.606873,388.929138 
	C381.158813,391.660919 379.833588,391.713318 378.059692,389.290955 
	C379.062439,388.933075 380.133911,388.922852 381.606873,388.929138 
z"/>
<path fill="#E9824D" opacity="1.000000" stroke="none" 
	d="
M707.004639,383.533325 
	C706.630554,384.098572 706.386963,384.309814 706.049683,384.770203 
	C705.632263,385.104126 705.390015,385.289490 705.064453,385.723755 
	C702.561523,386.273773 700.184875,386.630890 697.088867,386.704285 
	C695.893677,386.293549 695.418152,386.056366 694.942200,386.055511 
	C677.703979,386.023926 660.465698,385.997253 643.227661,386.043030 
	C642.158386,386.045898 641.090698,386.641968 640.022278,386.962036 
	C639.260620,386.967072 638.499023,386.972107 637.118652,386.719086 
	C635.007324,386.628235 633.514771,386.795441 632.022217,386.962677 
	C630.945190,386.968750 629.868225,386.974823 628.091431,386.702332 
	C623.928101,386.605957 620.464600,386.788147 617.001099,386.970276 
	C611.651733,386.973267 606.302307,386.976257 600.386108,386.821960 
	C599.539124,386.764587 599.258972,386.864471 598.978882,386.964417 
	C597.927429,386.969849 596.875977,386.975311 595.431763,386.969757 
	C596.868408,380.902191 598.450623,374.750946 600.708313,368.858490 
	C601.244324,367.459473 604.039001,366.125732 605.802185,366.116058 
	C636.267883,365.948975 666.734924,365.931610 697.201233,366.030182 
	C706.471008,366.060181 710.131653,372.607941 707.004639,383.533325 
z"/>
<path fill="#FBECDA" opacity="1.000000" stroke="none" 
	d="
M420.020447,410.424744 
	C412.597595,410.720886 405.184601,410.633331 397.385132,410.008423 
	C396.382721,408.136353 395.766754,406.801697 394.649750,404.381439 
	C393.356781,407.188843 392.619843,408.788940 391.882935,410.389008 
	C387.252380,410.393860 382.621826,410.398682 377.585266,410.436279 
	C376.814941,409.375671 376.156219,408.284943 376.146454,407.188385 
	C376.124939,404.766876 375.779663,402.031097 376.755310,399.992523 
	C378.200989,396.971985 380.837250,398.502930 383.204865,399.463501 
	C384.520874,399.997437 386.162018,399.667755 387.575073,400.038300 
	C390.181091,400.721741 392.727051,401.634277 395.080658,402.382294 
	C397.230835,401.648865 399.595245,400.415833 402.075989,400.101807 
	C405.335297,399.689148 408.686218,399.997406 411.997742,400.000549 
	C420.579407,400.008636 422.051453,401.849792 420.020447,410.424744 
z"/>
<path fill="#FDEEDD" opacity="1.000000" stroke="none" 
	d="
M392.159729,410.552368 
	C392.619843,408.788940 393.356781,407.188843 394.649750,404.381439 
	C395.766754,406.801697 396.382721,408.136353 397.006378,409.844452 
	C396.479919,410.370972 395.945740,410.524078 395.207947,410.870819 
	C394.148376,410.948181 393.292450,410.831970 392.159729,410.552368 
z"/>
<path fill="#EB8E5B" opacity="1.000000" stroke="none" 
	d="
M640.488281,386.972473 
	C641.090698,386.641968 642.158386,386.045898 643.227661,386.043030 
	C660.465698,385.997253 677.703979,386.023926 694.942200,386.055511 
	C695.418152,386.056366 695.893677,386.293549 696.673462,386.700256 
	C678.303101,386.980927 659.628662,386.981934 640.488281,386.972473 
z"/>
<path fill="#EB8E5B" opacity="1.000000" stroke="none" 
	d="
M617.458740,386.979187 
	C620.464600,386.788147 623.928101,386.605957 627.687561,386.695679 
	C624.627808,386.974426 621.272034,386.981232 617.458740,386.979187 
z"/>
<path fill="#EB8E5B" opacity="1.000000" stroke="none" 
	d="
M632.434814,386.972412 
	C633.514771,386.795441 635.007324,386.628235 636.737793,386.711182 
	C635.599670,386.968262 634.223511,386.975189 632.434814,386.972412 
z"/>
<path fill="#EB8E5B" opacity="1.000000" stroke="none" 
	d="
M599.239258,386.971741 
	C599.258972,386.864471 599.539124,386.764587 599.919861,386.815063 
	C599.846863,386.970001 599.673279,386.974579 599.239258,386.971741 
z"/>
<path fill="#FBECDA" opacity="1.000000" stroke="none" 
	d="
M465.017700,410.439697 
	C459.981750,410.832367 454.950836,410.874481 449.454468,410.860046 
	C448.164459,400.020691 448.399994,399.743469 458.165405,400.000946 
	C465.934418,400.205780 467.752960,402.881134 465.017700,410.439697 
z"/>
<path fill="#FBECDA" opacity="1.000000" stroke="none" 
	d="
M475.448914,392.996826 
	C476.205963,392.715668 476.909790,392.745361 477.613617,392.775055 
	C477.488495,393.350067 477.363373,393.925079 477.238220,394.500092 
	C476.624023,394.102631 476.009857,393.705139 475.448914,392.996826 
z"/>
<path fill="#FBECDA" opacity="1.000000" stroke="none" 
	d="
M489.362000,394.434906 
	C488.943909,394.326050 488.690643,394.060028 488.437378,393.794006 
	C488.547577,393.689301 488.748047,393.487518 488.754944,393.493896 
	C489.023193,393.743347 489.273834,394.011780 489.362000,394.434906 
z"/>
</svg>